<?xml version="1.0" encoding="UTF-8"?>
<svg version="1.1" xmlns="http://www.w3.org/2000/svg" width="197" height="94">
<path d="M0 0 C0.77695434 3.0578926 1.49373511 6.12621639 2.19140625 9.203125 C2.41376953 10.1828125 2.63613281 11.1625 2.86523438 12.171875 C3.09533203 13.18765625 3.32542969 14.2034375 3.5625 15.25 C3.79646484 16.28125 4.03042969 17.3125 4.27148438 18.375 C4.84804617 20.91657851 5.4242037 23.45824797 6 26 C4.35 25.34 2.7 24.68 1 24 C0.93941406 24.84304687 0.87882812 25.68609375 0.81640625 26.5546875 C0.69072266 28.19824219 0.69072266 28.19824219 0.5625 29.875 C0.44068359 31.51082031 0.44068359 31.51082031 0.31640625 33.1796875 C0 36 0 36 -1 38 C-0.30132812 38.04898438 0.39734375 38.09796875 1.1171875 38.1484375 C2.02726562 38.22320312 2.93734375 38.29796875 3.875 38.375 C4.77992188 38.44460937 5.68484375 38.51421875 6.6171875 38.5859375 C9 39 9 39 11 41 C11.825 41.61875 12.65 42.2375 13.5 42.875 C16.52770073 45.44854562 17.62608033 47.36410144 18.5 51.1875 C18.665 51.785625 18.83 52.38375 19 53 C19.66 53.33 20.32 53.66 21 54 C21 58.62 21 63.24 21 68 C20.34 68 19.68 68 19 68 C19 69.65 19 71.3 19 73 C18.01 73.495 18.01 73.495 17 74 C16.67 74.66 16.34 75.32 16 76 C15.34 76.66 14.68 77.32 14 78 C13.566875 78.515625 13.13375 79.03125 12.6875 79.5625 C10.52365012 81.40577953 8.78062088 81.58290687 6 82 C4.515 82.495 4.515 82.495 3 83 C1.17037564 83.14328384 -0.66501237 83.22040343 -2.5 83.25 C-3.93859375 83.28867188 -3.93859375 83.28867188 -5.40625 83.328125 C-8 83 -8 83 -9.6730957 81.73779297 C-11 80 -11 80 -11.15112305 78.05029297 C-11.04324463 77.32986816 -10.93536621 76.60944336 -10.82421875 75.8671875 C-10.7061084 75.07022461 -10.58799805 74.27326172 -10.46630859 73.45214844 C-9.88408192 70.39042867 -9.16697054 67.38254549 -8.38720703 64.36572266 C-6.17491238 55.74021699 -4.91751539 48.14279307 -9.0859375 39.8359375 C-10 38 -10 38 -10 36 C-10.21914062 36.88816406 -10.43828125 37.77632812 -10.6640625 38.69140625 C-12.26194758 45.12841486 -13.87757528 51.55879001 -15.56640625 57.97265625 C-15.83437012 58.99093506 -16.10233398 60.00921387 -16.37841797 61.05834961 C-16.91024096 63.07410958 -17.44435339 65.08926716 -17.98095703 67.10375977 C-18.99482227 70.94753093 -19.95179474 74.68341795 -20.55078125 78.6171875 C-20.77314453 79.79667969 -20.77314453 79.79667969 -21 81 C-24.36281722 82.68140861 -26.98271743 83.1161925 -30.6875 83.0625 C-31.49574219 83.05347656 -32.30398437 83.04445313 -33.13671875 83.03515625 C-33.75160156 83.02355469 -34.36648437 83.01195313 -35 83 C-39.01765945 74.96468111 -36.30069304 67.36689194 -34.0625 59.1875 C-33.78470703 58.13884766 -33.50691406 57.09019531 -33.22070312 56.00976562 C-31.16679308 48.33358617 -31.16679308 48.33358617 -30 46 C-29.34 46 -28.68 46 -28 46 C-28.99 40.06 -29.98 34.12 -31 28 C-31.495 29.485 -31.495 29.485 -32 31 C-32.66 31.66 -33.32 32.32 -34 33 C-35.53350261 34.96288334 -36.88515078 36.77030156 -38 39 C-39.31328657 40.35308313 -40.64499081 41.68870078 -42 43 C-41.01 43 -40.02 43 -39 43 C-41.60371196 56.25129381 -44.7266342 69.1799026 -49 82 C-51.8914086 83.1194613 -54.67762612 83.10768197 -57.75 83.0625 C-58.54921875 83.05347656 -59.3484375 83.04445313 -60.171875 83.03515625 C-60.77515625 83.02355469 -61.3784375 83.01195313 -62 83 C-62.33 82.34 -62.66 81.68 -63 81 C-63.350625 80.4225 -63.70125 79.845 -64.0625 79.25 C-65.27136606 76.34872146 -65.27076953 74.11384956 -65 71 C-64.01 70.01 -64.01 70.01 -63 69 C-62.11221308 67.03511169 -62.11221308 67.03511169 -61.375 64.875 C-60.98441406 63.78832031 -60.98441406 63.78832031 -60.5859375 62.6796875 C-60.29589844 61.84824219 -60.29589844 61.84824219 -60 61 C-59.01 61 -58.02 61 -57 61 C-57.66 55.39 -58.32 49.78 -59 44 C-62.90194193 47.64045375 -62.90194193 47.64045375 -65 51 C-65.49371094 51.40089844 -65.98742187 51.80179688 -66.49609375 52.21484375 C-68.79722941 54.94632166 -69.29218085 58.15658892 -70.0625 61.5625 C-70.23458984 62.27615723 -70.40667969 62.98981445 -70.58398438 63.72509766 C-71.72102629 68.50996893 -72.65136192 73.30379414 -73.3125 78.1796875 C-74 80 -74 80 -76 81.1953125 C-76.99 81.59363281 -76.99 81.59363281 -78 82 C-78.33 82.33 -78.66 82.66 -79 83 C-83.95057736 83.38081364 -87.04176132 83.11861229 -91 80 C-91 79.34 -91 78.68 -91 78 C-91.99 77.34 -92.98 76.68 -94 76 C-97.23926685 69.5214663 -96.83822157 61.24112342 -95.0625 54.375 C-93.2743484 50.37795525 -91.24034866 48.00889519 -88 45 C-86.515 44.505 -86.515 44.505 -85 44 C-84.1028125 43.505 -84.1028125 43.505 -83.1875 43 C-80.49590242 41.76955539 -77.92016215 41.39820393 -75 41 C-74.896875 39.906875 -74.79375 38.81375 -74.6875 37.6875 C-73.99561601 33.97648587 -73.72851977 33.27376648 -71 31 C-70.67 30.01 -70.34 29.02 -70 28 C-66.80689827 23.41859317 -63.37761399 19.792538 -58 18 C-57.34 17.34 -56.68 16.68 -56 16 C-46.56671153 12.89504034 -38.59764081 12.83492009 -29 15 C-28.09378906 15.14953125 -27.18757813 15.2990625 -26.25390625 15.453125 C-24 16 -24 16 -22 18 C-21.34 18.33 -20.68 18.66 -20 19 C-19.01 19.99 -19.01 19.99 -18 21 C-17.34 21.33 -16.68 21.66 -16 22 C-14.01722398 20.01722398 -13.23386857 18.49891961 -12.0625 16 C-11 14 -11 14 -9 12 C-7.43842476 9.65763713 -6.26425 7.63013463 -5.1875 5.0625 C-3.80666766 2.66421225 -2.28308134 1.52205422 0 0 Z M-13 22 C-13.66 23.32 -14.32 24.64 -15 26 C-13.515 26.99 -13.515 26.99 -12 28 C-11.34 26.02 -10.68 24.04 -10 22 C-10.99 22 -11.98 22 -13 22 Z " fill="#F1F1F1" transform="translate(136,2)"/>
<path d="M0 0 C0.66 0.66 1.32 1.32 2 2 C0.35 3.65 -1.3 5.3 -3 7 C-3.99 6.67 -4.98 6.34 -6 6 C-4 4 -2 2 0 0 Z " fill="#939292" transform="translate(73,22)"/>
<path d="" fill="#000000" transform="translate(0,0)"/>
<path d="" fill="#000000" transform="translate(0,0)"/>
<path d="" fill="#000000" transform="translate(0,0)"/>
<path d="" fill="#000000" transform="translate(0,0)"/>
<path d="" fill="#000000" transform="translate(0,0)"/>
<path d="" fill="#000000" transform="translate(0,0)"/>
<path d="" fill="#000000" transform="translate(0,0)"/>
<path d="" fill="#000000" transform="translate(0,0)"/>
<path d="" fill="#000000" transform="translate(0,0)"/>
<path d="" fill="#000000" transform="translate(0,0)"/>
<path d="" fill="#000000" transform="translate(0,0)"/>
<path d="" fill="#000000" transform="translate(0,0)"/>
<path d="" fill="#000000" transform="translate(0,0)"/>
<path d="" fill="#000000" transform="translate(0,0)"/>
<path d="" fill="#000000" transform="translate(0,0)"/>
<path d="" fill="#000000" transform="translate(0,0)"/>
<path d="" fill="#000000" transform="translate(0,0)"/>
<path d="" fill="#000000" transform="translate(0,0)"/>
<path d="" fill="#000000" transform="translate(0,0)"/>
<path d="" fill="#000000" transform="translate(0,0)"/>
<path d="" fill="#000000" transform="translate(0,0)"/>
<path d="" fill="#000000" transform="translate(0,0)"/>
<path d="" fill="#000000" transform="translate(0,0)"/>
<path d="" fill="#000000" transform="translate(0,0)"/>
<path d="" fill="#000000" transform="translate(0,0)"/>
<path d="" fill="#000000" transform="translate(0,0)"/>
<path d="" fill="#000000" transform="translate(0,0)"/>
<path d="" fill="#000000" transform="translate(0,0)"/>
<path d="" fill="#000000" transform="translate(0,0)"/>
<path d="" fill="#000000" transform="translate(0,0)"/>
<path d="" fill="#000000" transform="translate(0,0)"/>
<path d="" fill="#000000" transform="translate(0,0)"/>
<path d="" fill="#000000" transform="translate(0,0)"/>
<path d="" fill="#000000" transform="translate(0,0)"/>
<path d="" fill="#000000" transform="translate(0,0)"/>
<path d="" fill="#000000" transform="translate(0,0)"/>
<path d="" fill="#000000" transform="translate(0,0)"/>
<path d="" fill="#000000" transform="translate(0,0)"/>
<path d="" fill="#000000" transform="translate(0,0)"/>
<path d="" fill="#000000" transform="translate(0,0)"/>
<path d="" fill="#000000" transform="translate(0,0)"/>
<path d="" fill="#000000" transform="translate(0,0)"/>
<path d="" fill="#000000" transform="translate(0,0)"/>
<path d="" fill="#000000" transform="translate(0,0)"/>
<path d="" fill="#000000" transform="translate(0,0)"/>
<path d="" fill="#000000" transform="translate(0,0)"/>
<path d="" fill="#000000" transform="translate(0,0)"/>
<path d="" fill="#000000" transform="translate(0,0)"/>
<path d="" fill="#000000" transform="translate(0,0)"/>
<path d="" fill="#000000" transform="translate(0,0)"/>
<path d="" fill="#000000" transform="translate(0,0)"/>
<path d="" fill="#000000" transform="translate(0,0)"/>
<path d="" fill="#000000" transform="translate(0,0)"/>
<path d="" fill="#000000" transform="translate(0,0)"/>
<path d="" fill="#000000" transform="translate(0,0)"/>
<path d="" fill="#000000" transform="translate(0,0)"/>
<path d="" fill="#000000" transform="translate(0,0)"/>
<path d="" fill="#000000" transform="translate(0,0)"/>
<path d="" fill="#000000" transform="translate(0,0)"/>
<path d="" fill="#000000" transform="translate(0,0)"/>
<path d="" fill="#000000" transform="translate(0,0)"/>
<path d="" fill="#000000" transform="translate(0,0)"/>
<path d="" fill="#000000" transform="translate(0,0)"/>
<path d="" fill="#000000" transform="translate(0,0)"/>
</svg>
